<svg width="30" height="27" viewBox="0 0 30 27" fill="none" xmlns="http://www.w3.org/2000/svg">
<rect x="0.5" y="0.5" width="29" height="26" fill="white" stroke="black"/>
<path d="M19.2719 6.6767C17.7702 6.6767 16.791 7.3726 15.6381 8.36308C13.3065 10.3663 9.75375 15.3022 11.4623 18.4412C12.1975 19.7919 14.747 20.4311 16.1601 20.4086C17.6624 20.3848 18.6019 19.3113 19.9946 18.9632" stroke="black" stroke-width="3" stroke-linecap="round"/>
<path d="M4.45581 19.1439C4.45581 20.4555 4.45581 21.7671 4.45581 23.0787C4.45581 23.2636 4.62541 22.3832 4.67665 22.2155C4.79913 21.8146 5.23707 21.2013 5.58006 20.9507C6.04639 20.6099 7.25242 20.209 7.48728 21.031C7.75397 21.9644 8.25016 24.8124 8.25016 23.8416" stroke="black" stroke-width="3" stroke-linecap="round"/>
<path d="M22.8855 19.3245C22.8855 20.4337 23.3175 21.5525 23.7488 22.5768C24.0042 23.1834 23.7924 21.8825 23.8291 21.553C24.0465 19.5958 24.7782 17.9662 25.9571 16.4336" stroke="black" stroke-width="3" stroke-linecap="round"/>
</svg>
