<svg width="30" height="27" viewBox="0 0 30 27" fill="none" xmlns="http://www.w3.org/2000/svg">
<rect x="0.5" y="0.5" width="29" height="26" fill="white" stroke="black"/>
<path d="M10.6275 10.566C10.0694 10.1351 11.1977 8.52732 11.4348 8.22907C12.7152 6.61874 14.712 5.90686 16.6899 6.00972C18.157 6.08601 19.0139 6.6768 19.5003 8.13496C20.5518 11.2877 18.6122 13.3232 16.431 15.3184C14.1077 17.4437 11.5819 19.346 9.30993 21.5295C8.50686 22.3012 9.48456 21.807 9.77451 21.7177C11.2132 21.2745 12.6691 20.7063 14.169 20.5413C16.1067 20.3283 18.34 20.4465 20.1553 21.2236C20.4835 21.3641 21.2647 22 20.9093 22" stroke="black" stroke-width="3" stroke-linecap="round"/>
</svg>
