<svg width="30" height="27" viewBox="0 0 30 27" fill="none" xmlns="http://www.w3.org/2000/svg">
<rect x="0.5" y="0.5" width="29" height="26" fill="white" stroke="black"/>
<path d="M3.6167 5.00025C3.6167 7.13217 3.6167 9.26408 3.6167 11.396C3.6167 13.2637 3.6167 15.1314 3.6167 16.9991C3.6167 17.3315 3.52119 17.9194 3.61909 18.262C3.6891 18.5071 3.70264 18.8198 3.70264 19.0761C3.70264 19.4131 3.70264 19.0738 3.70264 18.9257C3.70264 18.1744 3.75203 17.4254 3.76949 16.6744C3.79692 15.4948 3.72577 14.3199 3.70742 13.1411C3.6914 12.1122 3.69458 11.0788 3.82679 10.0567C3.93851 9.19289 4.1167 8.34013 4.18967 7.47117C4.22204 7.08563 4.17277 6.81485 4.43079 6.52816C5.1966 5.67726 6.35789 4.94227 7.47706 4.69467C7.72433 4.63997 7.97225 4.59308 8.13358 4.82836C8.4651 5.31183 8.65259 5.97066 8.81159 6.52816C9.12013 7.60993 9.04547 8.73572 8.25295 9.57443C7.48103 10.3914 6.5823 11.2048 5.64595 11.8329C5.6309 11.843 5.38571 11.973 5.52181 11.8926C5.82585 11.7129 6.23681 11.6917 6.57702 11.6801C7.39523 11.6521 8.22566 11.7543 9.02407 11.9308C9.27242 11.9857 9.24478 12.0588 9.20312 12.2817C8.98647 13.4408 8.24692 14.5549 7.48422 15.4187C6.72592 16.2775 5.81886 16.9842 4.84858 17.5864C4.81324 17.6083 4.4658 17.8759 4.44273 17.8586C4.39193 17.8205 4.72575 17.5975 4.73398 17.5912" stroke="black" stroke-width="2" stroke-linecap="round"/>
<path d="M14.5318 12.3055C14.375 12.1488 14.2308 12.0841 14.0018 12.0573C12.5918 11.8918 10.6579 12.0787 9.61381 13.1578C9.09018 13.699 8.92405 14.4742 8.86418 15.199C8.81509 15.7932 8.8271 16.4297 9.25093 16.894C9.2965 16.944 9.45952 17.113 9.55651 17.0564C9.8636 16.8772 10.1654 16.5219 10.4351 16.2972C11.5752 15.3471 12.5065 14.2675 13.3691 13.0647C13.4124 13.0044 14.304 11.7638 14.3074 11.766C14.33 11.7811 14.3166 11.8199 14.3169 11.8472C14.3194 12.084 14.3122 12.0364 14.3169 12.339C14.3426 13.9962 14.4981 15.6525 14.8111 17.2808C14.9196 17.8456 15.0001 18.1744 15.1501 18.6965C15.1903 18.8365 15.2125 18.9883 15.2933 19.1095C15.3187 19.1476 15.3078 18.9004 15.3053 18.8803" stroke="black" stroke-width="2" stroke-linecap="round"/>
<path d="M16.4225 14.1104C16.4861 14.1263 16.4852 14.2588 16.4941 14.3014C16.6418 15.0054 16.7941 15.7062 16.9095 16.4166C17.0021 16.9863 17.1396 18.7077 17.153 18.1307C17.1598 17.8411 17.2052 17.5514 17.2533 17.2665C17.5103 15.7456 17.9287 14.3009 18.5377 12.8809C19.2004 11.3356 19.9756 9.82603 20.9059 8.42374C21.148 8.05895 21.3617 7.7536 21.6484 7.43537C21.9194 7.13461 21.7773 7.3215 21.923 7.27781" stroke="black" stroke-width="2" stroke-linecap="round"/>
<path d="M24.8021 6.24646C25.0427 8.65174 25.5087 11.0302 25.6902 13.4443C25.8197 15.1667 25.8764 20.3497 25.8764 18.6225" stroke="black" stroke-width="2" stroke-linecap="round"/>
<path d="M22.0519 13.9815C22.3922 13.7909 22.7049 13.5531 23.0402 13.3536C24.0351 12.7618 25.097 12.3243 26.1629 11.8806C26.5433 11.7222 26.9208 11.5653 27.2587 11.3267C27.2876 11.3063 27.2945 11.2785 27.2945 11.3172" stroke="black" stroke-width="2" stroke-linecap="round"/>
<path d="M2.46167 6.17828C4.45523 6.39979 6.82293 8.73068 8.33236 9.83617C10.4654 11.3984 12.8774 12.1649 15.2417 13.2683C18.8622 14.9578 22.5417 18.3712 26.8476 18.3712" stroke="black" stroke-width="2" stroke-linecap="round"/>
</svg>
