<svg width="30" height="27" viewBox="0 0 30 27" fill="none" xmlns="http://www.w3.org/2000/svg">
<rect x="0.5" y="0.5" width="29" height="26" fill="white" stroke="black"/>
<path d="M22.2516 7.7434C21.9705 6.41444 21.5924 5.40804 20.2373 4.84276C18.0403 3.92635 15.4605 3.5617 13.3079 4.76218C11.0115 6.04291 9.56636 9.55204 10.1172 12.1105C10.6497 14.5836 13.6833 14.9895 15.7695 14.568C17.3424 14.2501 18.601 13.5397 19.8505 12.5536C20.7798 11.8202 21.9121 10.928 22.3483 9.77385C22.475 9.43862 22.5261 9.05388 22.5981 8.70223C22.6614 8.3927 22.4787 8.9926 22.4651 9.03258C21.8374 10.8764 21.6524 12.8587 21.4378 14.7775C21.1688 17.1823 20.743 19.5893 20.3259 21.9727C20.2156 22.6031 20.0851 23.2258 19.9311 23.842" stroke="black" stroke-width="3" stroke-linecap="round"/>
</svg>
