<svg width="30" height="27" viewBox="0 0 30 27" fill="none" xmlns="http://www.w3.org/2000/svg">
<rect x="0.5" y="0.5" width="29" height="26" fill="white" stroke="black"/>
<path d="M18.8547 7.02805C18.7866 6.33876 18.9458 4.86586 18.1145 4.5384C17.9859 4.48771 17.6914 4.44793 17.5762 4.43186C16.7796 4.32064 15.979 4.21979 15.1791 4.13747C14.3291 4.05 13.3757 3.90421 12.524 4.08981C11.9904 4.20609 11.5308 4.56513 11.1306 4.91409C9.78033 6.09144 8.43776 8.40299 10.0876 9.91303C11.1566 10.8914 12.6341 11.586 13.9539 12.1532C15.7796 12.9378 17.759 13.2018 19.6061 13.9083C21.8681 14.7734 22.4719 17.8533 22.0341 19.9754C21.9137 20.5589 21.636 21.4622 21.3163 21.9716C20.7063 22.9436 19.77 23.4191 18.6697 23.6146C17.3888 23.8421 16.0675 23.6807 14.7894 23.5305C13.4383 23.3717 12.0366 23.2228 10.7241 22.8492C9.9864 22.6392 9.41768 22.4482 8.86242 21.9071C8.20608 21.2676 7.89343 20.1707 8.03253 19.2689C8.18369 18.2888 8.74422 17.4313 9.37268 16.6951C10.8229 14.9963 12.676 13.6754 14.4249 12.313C15.8425 11.2086 17.3651 10.036 18.3332 8.48596C18.6517 7.97603 18.7295 7.45991 18.7538 6.87666" stroke="black" stroke-width="3" stroke-linecap="round"/>
</svg>
