<svg width="30" height="27" viewBox="0 0 30 27" fill="none" xmlns="http://www.w3.org/2000/svg">
<rect x="0.5" y="0.5" width="29" height="26" fill="white" stroke="black"/>
<path d="M18.9907 6.3818C18.431 5.3562 17.6531 4.39388 16.4348 4.19387C14.6998 3.90902 12.429 3.79979 10.9269 4.86572C9.1694 6.11291 8.33172 8.479 8.12172 10.5234C7.87157 12.9585 7.99727 15.5932 8.58925 17.9711C8.84178 18.9856 9.39095 20.5405 10.0987 21.3834C10.81 22.2306 11.81 22.6818 12.8772 22.8862C13.7696 23.0572 15.4485 23.016 16.3591 22.8907C17.0163 22.8002 17.8353 22.585 18.4074 22.2011C19.4242 21.5187 20.203 20.1581 20.6025 19.0452C21.2699 17.1865 21.3122 14.2225 19.0085 13.5202C16.3667 12.7147 13.5244 13.3819 11.2475 14.8373C10.624 15.2359 9.96761 15.7218 9.53321 16.3313C9.49128 16.3901 9.45306 16.4537 9.45306 16.5258" stroke="black" stroke-width="3" stroke-linecap="round"/>
</svg>
