<svg width="30" height="27" viewBox="0 0 30 27" fill="none" xmlns="http://www.w3.org/2000/svg">
<rect x="0.5" y="0.5" width="29" height="26" fill="white" stroke="black"/>
<path d="M12.0642 5.96606C11.5808 7.88393 11.0198 9.7567 10.2733 11.5904C10.2314 11.6935 10.5028 11.3255 10.5202 11.3097C11.5291 10.3947 13.2747 10.4212 14.5255 10.4796C16.8926 10.5901 19.4211 11.2446 20.8783 13.2797C21.7448 14.4897 22.1544 15.69 22.04 17.2003C21.9097 18.9194 21.3792 19.9959 19.7288 20.7579C17.7326 21.6795 15.4525 21.4722 13.3735 21.162C11.4133 20.8696 9.93774 20.4442 8.24044 19.5333C7.45719 19.113 7.44214 19.0551 7.09088 18.5168C6.9453 18.2938 7.00703 18.4011 7.05458 18.4249" stroke="black" stroke-width="3" stroke-linecap="round"/>
<path d="M12.0208 5.00769C15.5466 4.96416 19.0821 5.11668 22.6064 5.18194" stroke="black" stroke-width="3" stroke-linecap="round"/>
</svg>
