<svg width="30" height="27" viewBox="0 0 30 27" fill="none" xmlns="http://www.w3.org/2000/svg">
<rect x="0.5" y="0.5" width="29" height="26" fill="white" stroke="black"/>
<path d="M8 4.77423C11.5714 4.32194 15.1579 3.9944 18.7451 3.76471C19.2822 3.73032 20.6847 3.64481 21.4182 3.65288C21.7483 3.65651 21.735 3.67103 21.5628 3.86143C20.6717 4.84667 19.8683 5.90902 19.1341 7.05623C17.2426 10.0117 16.3126 13.4678 15.5962 17.0094C15.3495 18.2288 15.1783 19.3784 15.018 20.6062C14.9581 21.0643 14.9306 21.534 14.8419 21.9875C14.8076 22.1626 14.8145 22.331 14.8129 22.5104C14.8119 22.6222 14.8194 22.9419 14.7183 23" stroke="black" stroke-width="3" stroke-linecap="round"/>
<path d="M11.9268 13.9687C12.688 13.6894 13.5449 13.6364 14.3292 13.5697C16.4355 13.3909 18.5247 13.4247 20.6322 13.4247" stroke="black" stroke-width="3" stroke-linecap="round"/>
</svg>
