<svg width="30" height="27" viewBox="0 0 30 27" fill="none" xmlns="http://www.w3.org/2000/svg">
<rect x="0.5" y="0.5" width="29" height="26" fill="white" stroke="black"/>
<path d="M9.23767 5.69836C9.23767 10.4672 10.5659 15.2703 10.5659 19.9771" stroke="black" stroke-width="3" stroke-linecap="round"/>
<path d="M18.5355 7.02667C18.7677 10.0447 19.0291 13.1167 19.5317 16.1031C19.6658 16.8997 20.4341 19.526 19.5317 19.9772" stroke="black" stroke-width="3" stroke-linecap="round"/>
<path d="M9.90186 14C13.0646 13.8243 16.3596 13.0956 19.1997 11.6755" stroke="black" stroke-width="3" stroke-linecap="round"/>
<path d="M4.25671 5.36633C4.866 5.48819 5.4289 6.07335 5.91704 6.43632C7.2085 7.39664 8.62604 8.04575 9.9756 8.90835C13.0222 10.8557 15.2865 13.6722 18.2403 15.6603C19.8712 16.7581 23.5329 18.3661 24.1806 20.3092" stroke="black" stroke-width="3" stroke-linecap="round"/>
</svg>
