<svg width="30" height="27" viewBox="0 0 30 27" fill="none" xmlns="http://www.w3.org/2000/svg">
<rect x="0.5" y="0.5" width="29" height="26" fill="white" stroke="black"/>
<path d="M10.9139 10.4804C10.9139 9.5591 11.474 8.85372 12.0738 8.19562C13.2867 6.86477 14.5819 5.71348 16.4689 6.06347C17.9803 6.34382 18.5129 7.33276 18.5792 8.84093C18.6591 10.6564 17.5719 11.4573 16.1854 12.3683C16.0819 12.4364 14.9733 12.9334 15.5096 12.8698C17.2714 12.6607 19.2748 13.3133 19.896 15.1807C20.4316 16.7907 19.6444 18.3555 18.5923 19.5409C16.9307 21.4129 14.3256 22.7498 11.7947 22.0219C10.9174 21.7695 10.2372 21.2401 9.88492 20.4042C9.78535 20.168 9.81541 20.0949 9.97213 20.2124" stroke="black" stroke-width="3" stroke-linecap="round"/>
</svg>
