<svg width="30" height="27" viewBox="0 0 30 27" fill="none" xmlns="http://www.w3.org/2000/svg">
<rect x="0.5" y="0.5" width="29" height="26" fill="white" stroke="black"/>
<path d="M20.8239 3.79785C21.2248 4.84996 20.9071 6.28238 20.9941 7.39643C21.0697 8.36347 20.9532 9.36391 21.1076 10.3207C21.3182 11.6265 21.3912 13.0263 21.3912 14.3478C21.3912 16.1556 18.7 16.4493 17.4081 16.667C14.6074 17.1391 11.7496 16.9569 8.91272 16.9569" stroke="black" stroke-width="3" stroke-linecap="round"/>
<path d="M8.68579 16.3897C10.6867 14.5317 12.8103 12.8029 14.8116 10.9446" stroke="black" stroke-width="3" stroke-linecap="round"/>
<path d="M8.68579 17.5241C9.06498 17.5662 9.37217 18.2067 9.5681 18.4568C10.2501 19.3275 11.1614 19.8212 11.9504 20.5618C12.3304 20.9185 12.7681 21.378 12.9965 21.8348" stroke="black" stroke-width="3" stroke-linecap="round"/>
</svg>
