<svg width="30" height="27" viewBox="0 0 30 27" fill="none" xmlns="http://www.w3.org/2000/svg">
<rect x="0.5" y="0.5" width="29" height="26" fill="white" stroke="black"/>
<path d="M16.5408 4.46247C15.8697 3.62359 14.2079 4.12838 13.4145 4.40607C10.83 5.31067 9.59302 7.58961 8.65265 10.0301C8.10305 11.4564 8 13.0256 8 14.5422C8 15.867 8.21401 17.2187 8.66876 18.4661C9.07868 19.5906 9.80386 20.5272 10.5864 21.4151C11.2279 22.1429 12.0238 22.4878 12.9633 22.7043C14.2128 22.9922 15.2444 22.6045 16.4078 22.1806C17.668 21.7214 18.3451 21.0775 19.0789 19.9769C19.7352 18.9924 20.2799 18.0521 20.6863 16.9393C21.6566 14.2824 22.0788 11.6221 21.4759 8.83358C20.9384 6.34748 19.2983 4.38996 16.6133 4.38996" stroke="black" stroke-width="3" stroke-linecap="round"/>
</svg>
