<svg width="40" height="40" viewBox="0 0 40 40" fill="none" xmlns="http://www.w3.org/2000/svg">
<path d="M20 27.6172C23.4141 27.6172 26.1719 24.6875 26.1719 21.0938V9.02344C26.1719 5.42969 23.4141 2.5 20 2.5C16.5859 2.5 13.8281 5.42969 13.8281 9.02344V21.0938C13.8281 24.6875 16.5859 27.6172 20 27.6172Z" fill="white"/>
<path d="M28.6719 15V21.2266C28.6719 25.9297 24.7813 29.7578 20.0781 29.7578C15.375 29.7578 11.4844 25.9297 11.4844 21.2266V15H10V21.2266C10 26.4766 14.1406 30.8047 19.375 31.1875V36.0938H13.6719V37.5H26.25V36.0938H20.8594V31.1875C26.0156 30.8047 30 26.4766 30 21.2266V15H28.6719Z" fill="white"/>
</svg>
